<?xml version="1.0" encoding="utf-8"?>
<!-- Generator: Adobe Illustrator 15.1.0, SVG Export Plug-In . SVG Version: 6.00 Build 0)  -->
<!DOCTYPE svg PUBLIC "-//W3C//DTD SVG 1.1//EN" "http://www.w3.org/Graphics/SVG/1.1/DTD/svg11.dtd">
<svg version="1.1" id="Ebene_2" xmlns="http://www.w3.org/2000/svg" xmlns:xlink="http://www.w3.org/1999/xlink" x="0px" y="0px"
         width="167.5px" height="48.39px" viewBox="0 0 167.5 48.39" enable-background="new 0 0 167.5 48.39" xml:space="preserve">
<g>
        <path fill="#1D1D1B" d="M30.654,27.889l-3.606-0.001l1.783-10.101c0.268-1.517,0.235-2.534-1.242-2.53
                c-2.928-0.001-6.349,5.033-6.349,5.033l-1.343,7.606l-3.595-0.002l2.688-15.381l2.7-0.002l0.066,4.148c0,0,2.697-4.453,6.794-4.458
                c3.426,0,4.5,2.246,3.919,5.463L30.654,27.889L30.654,27.889z"/>
        <path fill="#1D1D1B" d="M49.077,27.873l-3.594,0.004l1.788-10.104c0.264-1.514,0.228-2.532-1.248-2.527
                c-2.933,0-6.357,5.03-6.357,5.03l-1.336,7.606l-3.603,0.001l2.698-15.383h2.702l0.06,4.15c0,0,2.698-4.454,6.786-4.456
                c3.432-0.001,4.507,2.242,3.93,5.456L49.077,27.873L49.077,27.873z"/>
        <path fill="#1D1D1B" d="M65.355,18.43c0.002,1.444-0.438,3.717-1.511,5.142c-0.834,1.131-2.023,1.979-3.539,1.976
                c-1.766,0-3.193-0.9-3.191-3.744c-0.002-1.428,0.49-3.721,1.618-5.202c0.812-1.075,1.886-1.833,3.431-1.83
                C64.071,14.768,65.357,15.645,65.355,18.43L65.355,18.43z M68.964,18.426c-0.008-4.649-3.029-6.249-6.549-6.245
                c-2.637,0-4.844,0.824-6.293,2.448c-1.568,1.745-2.64,4.158-2.64,7.171c0,4.882,3.053,6.36,6.472,6.357
                c2.888,0.003,5.112-0.841,6.625-2.612C68.067,23.802,68.96,21.389,68.964,18.426L68.964,18.426z"/>
        <path fill="#1D1D1B" d="M80.511,15.016l-3.835,0.004l-1.477,8.544c-0.2,1.237,0.121,1.712,1.144,1.711
                c1.099-0.002,3.475-0.783,3.475-0.783l-0.483,2.928c0,0-2.007,0.727-3.673,0.722c-2.839,0.008-4.667-1.062-4.033-4.728l1.448-8.388
                l-3.343,0.001l0.442-2.551l3.326-0.001l0.908-3.494l3.542-1.159l-0.843,4.652l4.222-0.005L80.511,15.016L80.511,15.016z"/>
        <path fill="#1D1D1B" d="M92.45,16.899c0.004,2.639-3.972,2.994-7.105,3.08c0.468-3.311,2.67-5.284,4.665-5.284
                C91.609,14.692,92.452,15.469,92.45,16.899L92.45,16.899z M95.998,16.84c0-3.4-2.734-4.68-5.717-4.677
                c-4.717,0.003-8.602,3.665-8.602,9.601c0.006,5.302,3.523,6.378,6.308,6.376c3.322-0.003,5.745-1.285,5.745-1.285l0.525-3.246
                c0,0-3.136,1.598-5.857,1.601c-1.862,0-2.882-0.612-3.084-2.883C90.892,22.302,96,21.401,95.998,16.84L95.998,16.84z"/>
        <path fill="#1D1D1B" d="M110.347,16.443c0,0-2.118-1.425-4.292-1.419c-1.396,0-2.51,0.645-3.343,1.662
                c-1.043,1.244-1.592,3.084-1.589,4.884c0,2.63,1.164,3.597,2.849,3.593c2.089-0.001,5.13-1.422,5.13-1.422l-0.605,3.279
                c0,0-2.094,1.103-4.845,1.104c-3.024,0.007-6.192-1.241-6.2-6.321c-0.001-5.637,3.513-9.652,8.564-9.652
                c3.229-0.001,4.853,1.507,4.853,1.507L110.347,16.443L110.347,16.443z"/>
        <path fill="#575756" d="M9.729,8.393L7.293,21.778c-0.255,1.378,0.702,2.688,2.135,2.922c1.425,0.242,2.785-0.676,3.03-2.044
                l2.443-13.383c0.245-1.379-0.705-2.69-2.134-2.936c-0.157-0.026-0.313-0.038-0.466-0.037C11.05,6.307,9.947,7.168,9.729,8.393
                L9.729,8.393z"/>
        <path fill="#575756" d="M9.087,27.235c1.607,0.233,2.713,1.689,2.457,3.234c-0.243,1.549-1.736,2.609-3.355,2.378
                c-1.449-0.21-2.491-1.408-2.503-2.776v-0.048c0.001-0.135,0.012-0.271,0.034-0.408C5.968,28.058,7.47,26.993,9.087,27.235
                L9.087,27.235z"/>
        <path fill="#9C9B9B" d="M32.388,42.643l-6.46-0.001c0,0-1.165,0-0.964-1.147l1.551-8.912c0,0,0.201-1.148,1.366-1.148h6.462
                L32.388,42.643L32.388,42.643z"/>
        <path fill="#575756" d="M131.652,41.322c0,0-0.203,1.147-1.369,1.147l-94.571,0.16l1.974-11.215l94.572-0.124
                c0,0,1.165,0,0.963,1.146L131.652,41.322L131.652,41.322z"/>
        <g>
                <path fill="#FFFFFF" d="M44.247,39.65c-0.086,0.497-0.179,0.888-0.281,1.173c-0.101,0.285-0.247,0.517-0.437,0.694
                        c-0.166,0.16-0.373,0.271-0.621,0.336c-0.248,0.064-0.526,0.097-0.833,0.097c-0.221,0-0.431-0.02-0.63-0.06
                        c-0.2-0.04-0.375-0.086-0.524-0.138c-0.15-0.053-0.317-0.118-0.501-0.198l0.12-0.699c0.196,0.08,0.369,0.143,0.52,0.188
                        s0.319,0.089,0.506,0.129c0.187,0.04,0.373,0.06,0.557,0.06c0.208,0,0.386-0.029,0.533-0.087c0.147-0.059,0.273-0.15,0.377-0.276
                        c0.104-0.126,0.19-0.29,0.257-0.492s0.126-0.447,0.175-0.735l0.102-0.626c-0.117,0.209-0.238,0.376-0.364,0.501
                        c-0.125,0.126-0.285,0.241-0.478,0.346c-0.193,0.104-0.422,0.156-0.686,0.156c-0.141,0-0.292-0.024-0.451-0.074
                        c-0.16-0.049-0.307-0.138-0.442-0.267s-0.247-0.31-0.335-0.543c-0.089-0.232-0.134-0.533-0.134-0.901s0.054-0.736,0.161-1.104
                        c0.107-0.368,0.264-0.699,0.469-0.994c0.206-0.294,0.463-0.533,0.773-0.718c0.31-0.184,0.667-0.275,1.072-0.275
                        c0.166,0,0.313,0.02,0.441,0.06s0.239,0.086,0.331,0.138c0.092,0.053,0.187,0.118,0.286,0.198l0.166-0.304h0.644L44.247,39.65z
                         M44.036,36.099c-0.013-0.007-0.054-0.029-0.125-0.069s-0.178-0.083-0.322-0.129c-0.145-0.046-0.302-0.069-0.474-0.069
                        c-0.264,0-0.497,0.077-0.699,0.23c-0.202,0.153-0.371,0.345-0.506,0.575c-0.135,0.229-0.236,0.479-0.304,0.745
                        s-0.101,0.517-0.101,0.75c0,0.447,0.06,0.762,0.18,0.942s0.287,0.271,0.501,0.271c0.203,0,0.394-0.069,0.575-0.207
                        c0.181-0.138,0.34-0.291,0.479-0.46c0.138-0.169,0.29-0.391,0.455-0.667L44.036,36.099z"/>
                <path fill="#FFFFFF" d="M48.911,36.126c-0.209-0.062-0.361-0.092-0.46-0.092c-0.135,0-0.263,0.05-0.382,0.151
                        s-0.227,0.223-0.322,0.363c-0.095,0.142-0.176,0.285-0.244,0.433c-0.066,0.147-0.119,0.269-0.156,0.363
                        c-0.036,0.096-0.055,0.146-0.055,0.151l-0.46,2.613h-0.828l0.855-4.876h0.681l-0.064,0.984c0.037-0.135,0.088-0.267,0.152-0.396
                        s0.141-0.244,0.23-0.345c0.088-0.102,0.191-0.183,0.308-0.244s0.245-0.092,0.386-0.092c0.178,0,0.371,0.043,0.58,0.129
                        L48.911,36.126z"/>
                <path fill="#FFFFFF" d="M52.839,40.11h-0.689l0.119-1.187c-0.146,0.264-0.293,0.477-0.437,0.639
                        c-0.144,0.163-0.321,0.311-0.534,0.442c-0.211,0.132-0.455,0.197-0.73,0.197c-0.283,0-0.5-0.051-0.653-0.151
                        c-0.153-0.102-0.265-0.231-0.331-0.392c-0.068-0.159-0.1-0.342-0.098-0.547c0.004-0.206,0.023-0.416,0.061-0.63l0.561-3.248h0.828
                        l-0.533,3.063c-0.031,0.166-0.054,0.319-0.068,0.46c-0.016,0.142-0.014,0.264,0.004,0.368c0.019,0.104,0.057,0.186,0.115,0.244
                        c0.059,0.058,0.148,0.087,0.271,0.087c0.159,0,0.32-0.049,0.482-0.147c0.162-0.098,0.313-0.216,0.451-0.354
                        c0.139-0.139,0.262-0.281,0.373-0.428c0.109-0.147,0.194-0.268,0.252-0.359c0.059-0.092,0.091-0.141,0.098-0.147l0.487-2.787
                        h0.827L52.839,40.11z"/>
                <path fill="#FFFFFF" d="M58.976,36.853c0,0.448-0.053,0.874-0.16,1.279c-0.107,0.404-0.262,0.76-0.461,1.066
                        s-0.441,0.551-0.727,0.731s-0.608,0.271-0.971,0.271c-0.201,0-0.393-0.022-0.57-0.068c-0.178-0.047-0.311-0.089-0.4-0.129
                        c-0.088-0.04-0.139-0.063-0.151-0.069l-0.341,1.923h-0.827l1.168-6.624h0.69l-0.027,0.938c0.104-0.215,0.215-0.387,0.33-0.516
                        c0.117-0.129,0.27-0.246,0.456-0.354s0.415-0.161,0.686-0.161c0.178,0,0.345,0.03,0.501,0.092s0.295,0.161,0.414,0.299
                        s0.215,0.314,0.285,0.529S58.976,36.541,58.976,36.853z M58.147,36.88c0-0.355-0.05-0.621-0.15-0.796
                        c-0.102-0.175-0.281-0.262-0.539-0.262c-0.178,0-0.353,0.07-0.524,0.212c-0.171,0.141-0.325,0.296-0.46,0.464
                        c-0.135,0.169-0.285,0.395-0.451,0.677l-0.386,2.144c0.013,0.006,0.064,0.026,0.156,0.06c0.092,0.034,0.213,0.069,0.363,0.105
                        c0.15,0.037,0.284,0.056,0.4,0.056c0.251,0,0.477-0.078,0.677-0.234c0.199-0.156,0.365-0.362,0.501-0.617
                        c0.135-0.254,0.237-0.539,0.308-0.855C58.112,37.517,58.147,37.2,58.147,36.88z"/>
                <path fill="#FFFFFF" d="M64.312,36.853c0,0.448-0.054,0.874-0.161,1.279c-0.106,0.404-0.261,0.76-0.46,1.066
                        s-0.441,0.551-0.727,0.731s-0.609,0.271-0.971,0.271c-0.202,0-0.393-0.022-0.57-0.068c-0.178-0.047-0.312-0.089-0.4-0.129
                        s-0.14-0.063-0.152-0.069l-0.34,1.923h-0.828l1.168-6.624h0.691l-0.028,0.938c0.104-0.215,0.215-0.387,0.331-0.516
                        c0.117-0.129,0.269-0.246,0.455-0.354c0.188-0.107,0.416-0.161,0.686-0.161c0.178,0,0.346,0.03,0.502,0.092
                        s0.294,0.161,0.414,0.299c0.119,0.138,0.215,0.314,0.285,0.529S64.312,36.541,64.312,36.853z M63.483,36.88
                        c0-0.355-0.051-0.621-0.151-0.796c-0.102-0.175-0.28-0.262-0.538-0.262c-0.178,0-0.354,0.07-0.525,0.212
                        c-0.171,0.141-0.324,0.296-0.459,0.464c-0.135,0.169-0.285,0.395-0.451,0.677l-0.387,2.144c0.013,0.006,0.064,0.026,0.156,0.06
                        c0.092,0.034,0.213,0.069,0.363,0.105c0.15,0.037,0.284,0.056,0.4,0.056c0.252,0,0.477-0.078,0.677-0.234
                        c0.199-0.156,0.366-0.362,0.501-0.617c0.135-0.254,0.238-0.539,0.309-0.855C63.448,37.517,63.483,37.2,63.483,36.88z"/>
                <path fill="#FFFFFF" d="M69.123,36.522c0,0.38-0.091,0.687-0.271,0.92s-0.41,0.414-0.688,0.543
                        c-0.278,0.129-0.589,0.215-0.932,0.258c-0.342,0.043-0.672,0.067-0.99,0.073c0,0.223,0.016,0.408,0.046,0.557
                        s0.079,0.269,0.147,0.361c0.066,0.093,0.156,0.157,0.27,0.194s0.252,0.056,0.417,0.056c0.147,0,0.302-0.021,0.468-0.065
                        c0.164-0.044,0.314-0.094,0.449-0.15c0.134-0.057,0.289-0.129,0.467-0.216l-0.147,0.827c-0.159,0.068-0.304,0.122-0.433,0.161
                        c-0.129,0.04-0.275,0.077-0.441,0.11c-0.166,0.034-0.331,0.051-0.496,0.051c-0.203,0-0.397-0.026-0.584-0.078
                        c-0.188-0.052-0.355-0.143-0.502-0.271c-0.147-0.129-0.266-0.305-0.354-0.528c-0.089-0.225-0.134-0.508-0.134-0.852
                        c0-0.503,0.059-0.958,0.176-1.366c0.115-0.407,0.275-0.757,0.479-1.049c0.201-0.291,0.442-0.517,0.722-0.676
                        c0.278-0.16,0.581-0.239,0.906-0.239c0.429,0,0.774,0.111,1.034,0.336C68.993,35.702,69.123,36.049,69.123,36.522z M68.313,36.541
                        c0-0.276-0.053-0.474-0.156-0.594c-0.104-0.119-0.285-0.18-0.543-0.18c-0.16,0-0.311,0.051-0.455,0.152
                        c-0.145,0.101-0.276,0.239-0.396,0.414c-0.119,0.175-0.222,0.383-0.308,0.625c-0.086,0.243-0.147,0.502-0.185,0.777
                        c0.215-0.006,0.442-0.02,0.682-0.041c0.238-0.021,0.46-0.07,0.662-0.147c0.203-0.076,0.369-0.193,0.502-0.35
                        C68.247,37.042,68.313,36.823,68.313,36.541z"/>
        </g>
</g>
</svg>
