<svg preserveAspectRatio="xMidYMid meet" data-bbox="2.43 2.22 72.01 28.011" viewBox="2.43 2.22 72.01 28.011" xmlns="http://www.w3.org/2000/svg" data-type="color" role="img">
    <g>
        <path d="M43.63 2.75c-1.43.75-1.96 2.01-1.96 5.5 0 0 .72-.7 1.79-1.09.78-.28 1.45-.71 1.83-1 1.21-.88 1.39-2.02 1.39-3.94.01.01-1.96-.04-3.05.53z" fill="#ffffff" data-color="1"></path>
        <path d="M35.16 3.57c-1.16 1.03-1.5 2.66-1.5 2.66l-3.85 14.93L26.6 8.94c-.31-1.3-.87-2.9-1.76-3.99-1.13-1.38-3.44-1.47-3.68-1.47-.25 0-2.55.09-3.68 1.47-.89 1.09-1.45 2.69-1.76 3.99l-3.2 12.22L8.65 6.23s-.34-1.63-1.5-2.66C5.26 1.9 2.43 2.26 2.43 2.26l7.38 27.9s2.43.18 3.65-.45c1.6-.82 2.36-1.44 3.33-5.24.86-3.38 3.28-13.32 3.5-14.03.11-.35.25-1.19.87-1.19.63 0 .76.84.87 1.19.22.71 2.64 10.65 3.5 14.03.97 3.8 1.73 4.42 3.33 5.24 1.22.62 3.65.45 3.65.45l7.38-27.9c-.01 0-2.84-.36-4.73 1.31z" fill="#ffffff" data-color="1"></path>
        <path d="M46.69 6.82s-.46.71-1.51 1.3c-.68.38-1.33.63-2.02.97-1.17.56-1.48 1.18-1.48 2.13v18.94s1.86.24 3.08-.39c1.57-.8 1.93-1.57 1.94-5.04V6.82h-.01z" fill="#ffffff" data-color="1"></path>
        <path d="M65.08 16.28l9.36-13.92s-3.95-.67-5.91 1.11c-1.25 1.14-2.65 3.19-2.65 3.19l-3.44 4.97c-.17.26-.39.54-.74.54s-.57-.28-.74-.54l-3.44-4.97s-1.4-2.05-2.65-3.19c-1.96-1.78-5.91-1.11-5.91-1.11l9.36 13.92-9.34 13.88s4.11.52 6.07-1.26c1.25-1.14 2.46-2.99 2.46-2.99l3.44-4.97c.17-.26.39-.54.74-.54s.57.28.74.54l3.44 4.97s1.28 1.85 2.53 2.99c1.96 1.78 6 1.26 6 1.26l-9.32-13.88z" fill="#ffffff" data-color="1"></path>
    </g>
</svg>